# xmcd CD database file
#
# Track frame offsets:
#	150
#	14127
#	29387
#	47205
#	66557
#	81682
#	104430
#	119855
#	139052
#	154290
#	176067
#	191850
#	209772
#	225577
#	243852
#	259952
#	276230
#	296765
#	314277
#	330587
#
# Disc length: 4699 seconds
#
# Revision: 7
# Processed by: cddbd v1.5.2PL0 Copyright (c) Steve Scherf et al.
# Submitted via: CDex 1.70beta2
#
DISCID=4d125914
DTITLE=John Lennon - Lennon Legend: The Very Best of John Lennon
DYEAR=1998
DGENRE=Rock
TTITLE0=Imagine
TTITLE1=Instant Karma!
TTITLE2=Mother (single edit)
TTITLE3=Jealous Guy
TTITLE4=Power To The People
TTITLE5=Cold Turkey
TTITLE6=Love
TTITLE7=Mind Games
TTITLE8=Whatever Gets You Thru The Night
TTITLE9=#9 Dream
TTITLE10=Stand By Me
TTITLE11=(Just Like) Starting Over
TTITLE12=Woman
TTITLE13=Beautiful Boy (Darling Boy)
TTITLE14=Watching The Wheels
TTITLE15=Nobody Told Me
TTITLE16=Borrowed Time
TTITLE17=Working Class Hero
TTITLE18=Happy Xmas (War Is Over)
TTITLE19=Give Peace a Chance
EXTD=YEAR: 1998
EXTT0=
EXTT1=
EXTT2=
EXTT3=
EXTT4=
EXTT5=
EXTT6=
EXTT7=
EXTT8=
EXTT9=
EXTT10=
EXTT11=
EXTT12=
EXTT13=
EXTT14=
EXTT15=
EXTT16=
EXTT17=
EXTT18=
EXTT19=
PLAYORDER=
